<svg width="48" height="48" viewBox="0 0 48 48" fill="none" xmlns="http://www.w3.org/2000/svg">
<g filter="url(#filter0_d_1_1017)">
<circle cx="24" cy="24" r="12" fill="black"/>
</g>
<path d="M20.7146 22.5421L19.3426 23.9141C18.78 24.4767 18.4639 25.2399 18.4639 26.0356C18.4639 26.8313 18.78 27.5944 19.3426 28.1571C19.9053 28.7197 20.6684 29.0358 21.4641 29.0358C22.2598 29.0358 23.023 28.7197 23.5856 28.1571L25.4136 26.3281C25.7529 25.9887 26.0059 25.573 26.1512 25.1156C26.2966 24.6583 26.3301 24.1728 26.249 23.6998C26.1679 23.2269 25.9745 22.7803 25.6851 22.3975C25.3956 22.0147 25.0186 21.707 24.5856 21.5001L23.9996 22.0861C23.9401 22.1457 23.8884 22.2126 23.8456 22.2851C24.1801 22.3813 24.4838 22.5631 24.7265 22.8125C24.9692 23.062 25.1427 23.3705 25.2296 23.7076C25.3166 24.0446 25.3141 24.3985 25.2224 24.7343C25.1306 25.0701 24.9529 25.3761 24.7066 25.6221L22.8796 27.4501C22.5043 27.8254 21.9953 28.0362 21.4646 28.0362C20.9339 28.0362 20.4249 27.8254 20.0496 27.4501C19.6743 27.0748 19.4635 26.5658 19.4635 26.0351C19.4635 25.5044 19.6743 24.9954 20.0496 24.6201L20.8426 23.8281C20.7307 23.4088 20.6875 22.9742 20.7146 22.5411V22.5421Z" fill="white"/>
<path d="M22.5856 20.6721C22.2463 21.0114 21.9934 21.4272 21.848 21.8845C21.7027 22.3419 21.6691 22.8274 21.7503 23.3004C21.8314 23.7733 22.0248 24.2199 22.3142 24.6027C22.6036 24.9854 22.9806 25.2932 23.4136 25.5001L24.1886 24.7241C23.8496 24.6331 23.5404 24.4546 23.2923 24.2063C23.0441 23.958 22.8656 23.6488 22.7748 23.3097C22.684 22.9706 22.6841 22.6136 22.775 22.2745C22.8659 21.9355 23.0444 21.6263 23.2926 21.3781L25.1196 19.5501C25.4949 19.1748 26.0039 18.964 26.5346 18.964C27.0653 18.964 27.5743 19.1748 27.9496 19.5501C28.3249 19.9254 28.5357 20.4344 28.5357 20.9651C28.5357 21.4958 28.3249 22.0048 27.9496 22.3801L27.1566 23.1721C27.2686 23.5921 27.3116 24.0271 27.2846 24.4591L28.6566 23.0871C29.2193 22.5244 29.5354 21.7613 29.5354 20.9656C29.5354 20.1699 29.2193 19.4067 28.6566 18.8441C28.094 18.2814 27.3308 17.9653 26.5351 17.9653C25.7394 17.9653 24.9763 18.2814 24.4136 18.8441L22.5856 20.6721Z" fill="white"/>
<defs>
<filter id="filter0_d_1_1017" x="0" y="0" width="48" height="48" filterUnits="userSpaceOnUse" color-interpolation-filters="sRGB">
<feFlood flood-opacity="0" result="BackgroundImageFix"/>
<feColorMatrix in="SourceAlpha" type="matrix" values="0 0 0 0 0 0 0 0 0 0 0 0 0 0 0 0 0 0 127 0" result="hardAlpha"/>
<feMorphology radius="6" operator="dilate" in="SourceAlpha" result="effect1_dropShadow_1_1017"/>
<feOffset/>
<feGaussianBlur stdDeviation="3"/>
<feComposite in2="hardAlpha" operator="out"/>
<feColorMatrix type="matrix" values="0 0 0 0 1 0 0 0 0 1 0 0 0 0 1 0 0 0 0.05 0"/>
<feBlend mode="normal" in2="BackgroundImageFix" result="effect1_dropShadow_1_1017"/>
<feBlend mode="normal" in="SourceGraphic" in2="effect1_dropShadow_1_1017" result="shape"/>
</filter>
</defs>
</svg>
