<svg width="32" height="32" viewBox="0 0 32 32" fill="none" xmlns="http://www.w3.org/2000/svg">
<circle cx="16" cy="16" r="16" fill="#121414"/>
<g clip-path="url(#clip0_1_884)">
<path d="M12.134 22H9.2315V12.653H12.134V22ZM10.681 11.378C9.753 11.378 9 10.609 9 9.681C9 9.23517 9.1771 8.8076 9.49235 8.49235C9.8076 8.1771 10.2352 8 10.681 8C11.1268 8 11.5544 8.1771 11.8696 8.49235C12.1849 8.8076 12.362 9.23517 12.362 9.681C12.362 10.609 11.609 11.378 10.681 11.378ZM22.997 22H20.101V17.45C20.101 16.3655 20.079 14.975 18.592 14.975C17.083 14.975 16.8515 16.153 16.8515 17.372V22H13.952V12.653H16.7355V13.928H16.776C17.1635 13.1935 18.11 12.4185 19.522 12.4185C22.4595 12.4185 22.9995 14.353 22.9995 16.8655V22H22.997Z" fill="#C5C5C5"/>
</g>
<defs>
<clipPath id="clip0_1_884">
<rect width="16" height="16" fill="white" transform="translate(8 8)"/>
</clipPath>
</defs>
</svg>
