<svg width="32" height="32" viewBox="0 0 32 32" fill="none" xmlns="http://www.w3.org/2000/svg">
<circle cx="16" cy="16" r="16" fill="#121414"/>
<g clip-path="url(#clip0_1_900)">
<path d="M16.375 8.20312C13.1688 8.20312 10 10.3406 10 13.8C10 16 11.2375 17.25 11.9875 17.25C12.2969 17.25 12.475 16.3875 12.475 16.1438C12.475 15.8531 11.7344 15.2344 11.7344 14.025C11.7344 11.5125 13.6469 9.73125 16.1219 9.73125C18.25 9.73125 19.825 10.9406 19.825 13.1625C19.825 14.8219 19.1594 17.9344 17.0031 17.9344C16.225 17.9344 15.5594 17.3719 15.5594 16.5656C15.5594 15.3844 16.3844 14.2406 16.3844 13.0219C16.3844 10.9531 13.45 11.3281 13.45 13.8281C13.45 14.3531 13.5156 14.9344 13.75 15.4125C13.3187 17.2688 12.4375 20.0344 12.4375 21.9469C12.4375 22.5375 12.5219 23.1188 12.5781 23.7094C12.6844 23.8281 12.6313 23.8156 12.7938 23.7563C14.3688 21.6 14.3125 21.1781 15.025 18.3562C15.4094 19.0875 16.4031 19.4812 17.1906 19.4812C20.5094 19.4812 22 16.2469 22 13.3313C22 10.2281 19.3188 8.20312 16.375 8.20312Z" fill="#C5C5C5"/>
</g>
<defs>
<clipPath id="clip0_1_900">
<rect width="12" height="16" fill="white" transform="translate(10 8)"/>
</clipPath>
</defs>
</svg>
