<svg width="32" height="32" viewBox="0 0 32 32" fill="none" xmlns="http://www.w3.org/2000/svg">
<circle cx="16" cy="16" r="16" fill="#121414"/>
<path d="M23.7623 11.2917C23.2057 11.5384 22.6077 11.705 21.979 11.7804C22.6277 11.3922 23.113 10.7814 23.3443 10.0617C22.7349 10.4237 22.0679 10.6785 21.3723 10.815C20.9046 10.3156 20.285 9.98459 19.6099 9.87336C18.9347 9.76212 18.2417 9.8769 17.6385 10.1999C17.0353 10.5229 16.5555 11.036 16.2738 11.6595C15.992 12.2831 15.924 12.9822 16.0803 13.6484C14.8455 13.5864 13.6374 13.2654 12.5346 12.7063C11.4318 12.1472 10.4589 11.3625 9.679 10.403C9.41233 10.863 9.259 11.3964 9.259 11.9644C9.2587 12.4757 9.38462 12.9792 9.62559 13.4302C9.86655 13.8812 10.2151 14.2657 10.6403 14.5497C10.1472 14.534 9.66492 14.4008 9.23367 14.161V14.201C9.23362 14.9182 9.48169 15.6133 9.93579 16.1684C10.3899 16.7235 11.022 17.1043 11.725 17.2464C11.2675 17.3702 10.7879 17.3884 10.3223 17.2997C10.5207 17.9168 10.907 18.4564 11.4272 18.843C11.9475 19.2296 12.5756 19.4438 13.2237 19.4557C12.1236 20.3193 10.7649 20.7878 9.36633 20.7857C9.11859 20.7858 8.87105 20.7713 8.625 20.7424C10.0447 21.6552 11.6972 22.1396 13.385 22.1377C19.0983 22.1377 22.2217 17.4057 22.2217 13.3017C22.2217 13.1684 22.2183 13.0337 22.2123 12.9004C22.8199 12.461 23.3443 11.917 23.761 11.2937L23.7623 11.2917Z" fill="#C5C5C5"/>
</svg>
