<svg width="32" height="32" viewBox="0 0 32 32" fill="none" xmlns="http://www.w3.org/2000/svg">
<circle cx="16" cy="16" r="16" fill="#121414"/>
<g clip-path="url(#clip0_1_888)">
<path fill-rule="evenodd" clip-rule="evenodd" d="M12.977 8.71099C13.759 8.67499 14.0083 8.66699 16.0003 8.66699C17.9923 8.66699 18.2417 8.67566 19.023 8.71099C19.8043 8.74633 20.3377 8.87099 20.8043 9.05166C21.293 9.23633 21.7363 9.52499 22.103 9.89833C22.4763 10.2643 22.7643 10.707 22.9483 11.1963C23.1297 11.663 23.2537 12.1963 23.2897 12.9763C23.3257 13.7597 23.3337 14.009 23.3337 16.0003C23.3337 17.9923 23.325 18.2417 23.2897 19.0237C23.2543 19.8037 23.1297 20.337 22.9483 20.8037C22.7643 21.2931 22.4758 21.7365 22.103 22.103C21.7363 22.4763 21.293 22.7643 20.8043 22.9483C20.3377 23.1297 19.8043 23.2537 19.0243 23.2897C18.2417 23.3257 17.9923 23.3337 16.0003 23.3337C14.0083 23.3337 13.759 23.325 12.977 23.2897C12.197 23.2543 11.6637 23.1297 11.197 22.9483C10.7076 22.7643 10.2642 22.4758 9.89766 22.103C9.52458 21.7368 9.23587 21.2936 9.05166 20.8043C8.87099 20.3377 8.74699 19.8043 8.71099 19.0243C8.67499 18.241 8.66699 17.9917 8.66699 16.0003C8.66699 14.0083 8.67566 13.759 8.71099 12.9777C8.74633 12.1963 8.87099 11.663 9.05166 11.1963C9.23614 10.707 9.52507 10.2639 9.89833 9.89766C10.2644 9.52466 10.7073 9.23595 11.1963 9.05166C11.663 8.87099 12.1963 8.74699 12.9763 8.71099H12.977ZM18.9637 10.031C18.1903 9.99566 17.9583 9.98833 16.0003 9.98833C14.0423 9.98833 13.8103 9.99566 13.037 10.031C12.3217 10.0637 11.9337 10.183 11.675 10.2837C11.333 10.417 11.0883 10.575 10.8317 10.8317C10.5884 11.0684 10.4011 11.3565 10.2837 11.675C10.183 11.9337 10.0637 12.3217 10.031 13.037C9.99566 13.8103 9.98833 14.0423 9.98833 16.0003C9.98833 17.9583 9.99566 18.1903 10.031 18.9637C10.0637 19.679 10.183 20.067 10.2837 20.3257C10.401 20.6437 10.5883 20.9323 10.8317 21.169C11.0683 21.4123 11.357 21.5997 11.675 21.717C11.9337 21.8177 12.3217 21.937 13.037 21.9697C13.8103 22.005 14.0417 22.0123 16.0003 22.0123C17.959 22.0123 18.1903 22.005 18.9637 21.9697C19.679 21.937 20.067 21.8177 20.3257 21.717C20.6677 21.5837 20.9123 21.4257 21.169 21.169C21.4123 20.9323 21.5997 20.6437 21.717 20.3257C21.8177 20.067 21.937 19.679 21.9697 18.9637C22.005 18.1903 22.0123 17.9583 22.0123 16.0003C22.0123 14.0423 22.005 13.8103 21.9697 13.037C21.937 12.3217 21.8177 11.9337 21.717 11.675C21.5837 11.333 21.4257 11.0883 21.169 10.8317C20.9323 10.5884 20.6441 10.4011 20.3257 10.2837C20.067 10.183 19.679 10.0637 18.9637 10.031ZM15.0637 18.261C15.5868 18.4787 16.1692 18.5081 16.7116 18.3441C17.254 18.1801 17.7226 17.8329 18.0374 17.3618C18.3522 16.8907 18.4937 16.3249 18.4377 15.7611C18.3817 15.1972 18.1317 14.6703 17.7303 14.2703C17.4745 14.0146 17.1651 13.8189 16.8245 13.6971C16.484 13.5753 16.1206 13.5306 15.7607 13.5661C15.4007 13.6016 15.0531 13.7164 14.7429 13.9024C14.4326 14.0884 14.1675 14.3408 13.9665 14.6416C13.7656 14.9423 13.6338 15.2839 13.5807 15.6416C13.5276 15.9994 13.5544 16.3645 13.6594 16.7107C13.7643 17.0568 13.9446 17.3754 14.1875 17.6435C14.4303 17.9115 14.7295 18.1224 15.0637 18.261ZM13.335 13.335C13.685 12.985 14.1005 12.7073 14.5579 12.5179C15.0152 12.3285 15.5053 12.231 16.0003 12.231C16.4953 12.231 16.9855 12.3285 17.4428 12.5179C17.9001 12.7073 18.3156 12.985 18.6657 13.335C19.0157 13.685 19.2933 14.1005 19.4828 14.5579C19.6722 15.0152 19.7697 15.5053 19.7697 16.0003C19.7697 16.4953 19.6722 16.9855 19.4828 17.4428C19.2933 17.9001 19.0157 18.3156 18.6657 18.6657C17.9588 19.3726 17 19.7697 16.0003 19.7697C15.0006 19.7697 14.0419 19.3726 13.335 18.6657C12.6281 17.9588 12.231 17 12.231 16.0003C12.231 15.0006 12.6281 14.0419 13.335 13.335ZM20.6057 12.7923C20.6924 12.7105 20.7618 12.6121 20.8099 12.503C20.8579 12.3938 20.8835 12.2762 20.8853 12.1569C20.887 12.0377 20.8648 11.9194 20.82 11.8089C20.7752 11.6984 20.7086 11.598 20.6243 11.5137C20.54 11.4294 20.4396 11.3628 20.3291 11.318C20.2186 11.2732 20.1003 11.251 19.981 11.2527C19.8618 11.2545 19.7441 11.2801 19.635 11.3281C19.5259 11.3762 19.4275 11.4456 19.3457 11.5323C19.1865 11.701 19.0994 11.9251 19.1028 12.1569C19.1062 12.3888 19.1998 12.6102 19.3638 12.7742C19.5277 12.9382 19.7492 13.0318 19.981 13.0352C20.2129 13.0386 20.437 12.9515 20.6057 12.7923Z" fill="#C5C5C5"/>
</g>
<defs>
<clipPath id="clip0_1_888">
<rect width="16" height="16" fill="white" transform="translate(8 8)"/>
</clipPath>
</defs>
</svg>
